Coordinates
version=1
nRows=27
nColumns=38
inDegrees=no

Units are S.I. units (second, meters, Newtons, ...)
If the header above contains a line with 'inDegrees', this indicates whether rotational values are in degrees (yes) or radians (no).

endheader
time	pelvis_tilt	pelvis_list	pelvis_rotation	pelvis_tx	pelvis_ty	pelvis_tz	hip_flexion_r	hip_adduction_r	hip_rotation_r	knee_angle_r	ankle_angle_r	subtalar_angle_r	mtp_angle_r	hip_flexion_l	hip_adduction_l	hip_rotation_l	knee_angle_l	ankle_angle_l	subtalar_angle_l	mtp_angle_l	lumbar_extension	lumbar_bending	lumbar_rotation	arm_flex_r	arm_add_r	arm_rot_r	elbow_flex_r	pro_sup_r	wrist_flex_r	wrist_dev_r	arm_flex_l	arm_add_l	arm_rot_l	elbow_flex_l	pro_sup_l	wrist_flex_l	wrist_dev_l
10	-2.95297	1.27433	-1.24632	0.647949	1.79094	0.953666	-0.164987	0.0833764	-0.187137	0.398821	-0.223857	0	0	0.185962	-0.178199	-0.17264	0.786929	-0.303996	0	0	-0.401197	0.0271281	0.0792347	0.465835	-0.407156	-0.0307287	1.32392	1.5708	0	0	0.184714	-0.492777	0.531346	0.37995	1.5708	0	0
10.01	-2.94666	1.27401	-1.24717	0.647536	1.78681	0.953777	-0.163925	0.0809792	-0.187963	0.394699	-0.226672	0	0	0.182493	-0.178987	-0.162178	0.805138	-0.297912	0	0	-0.397737	0.0282383	0.0814279	0.466012	-0.410196	-0.0361433	1.31379	1.5708	0	0	0.187433	-0.493418	0.529347	0.382583	1.5708	0	0
10.02	-2.94104	1.27352	-1.2474	0.647051	1.78264	0.953847	-0.162781	0.0785625	-0.189353	0.39115	-0.229348	0	0	0.178166	-0.179321	-0.150147	0.821837	-0.291022	0	0	-0.394616	0.0295518	0.0834907	0.466042	-0.41357	-0.04125	1.30433	1.5708	0	0	0.190243	-0.494285	0.526611	0.386238	1.5708	0	0
10.03	-2.93641	1.27265	-1.24686	0.646574	1.77853	0.953933	-0.16183	0.0762988	-0.191991	0.387962	-0.231766	0	0	0.17247	-0.179622	-0.13761	0.836731	-0.283468	0	0	-0.391804	0.0311128	0.0857684	0.465784	-0.417205	-0.0464812	1.29531	1.5708	0	0	0.193173	-0.494878	0.52378	0.390063	1.5708	0	0
10.04	-2.93239	1.27198	-1.24584	0.646042	1.77443	0.953982	-0.160947	0.0744005	-0.192674	0.384174	-0.233398	0	0	0.166347	-0.179299	-0.124098	0.850408	-0.276818	0	0	-0.388768	0.0326971	0.0878756	0.465179	-0.420773	-0.0517564	1.28676	1.5708	0	0	0.196076	-0.495187	0.520873	0.394002	1.5708	0	0
10.05	-2.92762	1.27195	-1.24617	0.645506	1.77034	0.953984	-0.159187	0.0721479	-0.191153	0.381331	-0.23307	0	0	0.161171	-0.178097	-0.108973	0.866305	-0.279603	0	0	-0.38455	0.033547	0.0922653	0.462068	-0.425103	-0.0595608	1.27941	1.5708	0	0	0.204045	-0.495785	0.534137	0.394432	1.5708	0	0
10.06	-2.85222	1.30921	-1.30985	0.642145	1.76237	0.952241	-0.109024	0.0255416	-0.236567	0.409478	-0.227414	0	0	0.146813	-0.0644466	0.0874909	0.794655	-0.225562	0	0	-0.357353	0.0083577	0.0798771	0.458932	-0.431796	-0.0682827	1.2742	1.5708	0	0	0.209715	-0.487772	0.521753	0.393331	1.5708	0	0
10.07	-2.85013	1.30708	-1.30733	0.64119	1.7583	0.952177	-0.1104	0.0238566	-0.238681	0.404162	-0.232065	0	0	0.142471	-0.0692222	0.0844285	0.81869	-0.212929	0	0	-0.355734	0.0113934	0.0781622	0.461922	-0.434442	-0.0675875	1.26472	1.5708	0	0	0.20431	-0.486634	0.495728	0.404672	1.5708	0	0
10.08	-2.84537	1.30809	-1.30835	0.64022	1.75419	0.951997	-0.106578	0.0195474	-0.241046	0.404533	-0.228511	0	0	0.13756	-0.070825	0.0881828	0.833379	-0.213365	0	0	-0.349817	0.0117223	0.0831542	0.457008	-0.43976	-0.0756444	1.25842	1.5708	0	0	0.213674	-0.486048	0.51409	0.404281	1.5708	0	0
10.09	-2.88539	1.28205	-1.2622	0.64243	1.75259	0.954178	-0.142075	0.0507093	-0.198042	0.3719	-0.241549	0	0	0.106373	-0.108742	0.0785241	0.842958	-0.208751	0	0	-0.367762	0.0266318	0.088196	0.456084	-0.435439	-0.0831101	1.25034	1.5708	0	0	0.217564	-0.495254	0.512817	0.416289	1.5708	0	0
10.1	-2.83436	1.30754	-1.30818	0.637924	1.74568	0.951877	-0.105083	0.0116819	-0.251158	0.396533	-0.242213	0	0	0.12221	-0.0722346	0.104632	0.854567	-0.19958	0	0	-0.34521	0.0138786	0.0760082	0.461375	-0.444478	-0.0757121	1.24134	1.5708	0	0	0.206751	-0.485377	0.478089	0.425318	1.5708	0	0
10.11	-2.83053	1.30899	-1.3073	0.636733	1.74149	0.951693	-0.101529	0.00752838	-0.253788	0.395302	-0.240891	0	0	0.115544	-0.0735023	0.111124	0.861464	-0.199533	0	0	-0.339586	0.0140041	0.0790658	0.455683	-0.449374	-0.0841093	1.23651	1.5708	0	0	0.216281	-0.485148	0.49656	0.424901	1.5708	0	0
10.12	-2.87377	1.28271	-1.25693	0.6387	1.73996	0.953862	-0.138159	0.0405062	-0.206605	0.360303	-0.254717	0	0	0.0825419	-0.112327	0.104394	0.863435	-0.196493	0	0	-0.358131	0.0297649	0.0818225	0.454177	-0.444031	-0.0917504	1.23021	1.5708	0	0	0.219228	-0.494974	0.494362	0.437604	1.5708	0	0
10.13	-2.82485	1.30971	-1.30158	0.634017	1.73284	0.95135	-0.0982418	0.000583243	-0.261379	0.388133	-0.251707	0	0	0.0988359	-0.0746784	0.132139	0.870471	-0.189029	0	0	-0.333809	0.0167485	0.0731204	0.455123	-0.454992	-0.0885391	1.22477	1.5708	0	0	0.215199	-0.484962	0.48016	0.440793	1.5708	0	0
10.14	-2.86929	1.28211	-1.24969	0.635844	1.73122	0.953543	-0.137951	0.0352181	-0.210767	0.348676	-0.272895	0	0	0.0635987	-0.113991	0.1263	0.867686	-0.18722	0	0	-0.35477	0.0337554	0.0698072	0.460087	-0.447491	-0.0880486	1.216	1.5708	0	0	0.20863	-0.495606	0.457494	0.460067	1.5708	0	0
10.15	-2.86881	1.28306	-1.24503	0.634306	1.72679	0.953258	-0.135897	0.0321992	-0.211582	0.344548	-0.277164	0	0	0.0551385	-0.114836	0.135439	0.867224	-0.186268	0	0	-0.351086	0.0352931	0.0666903	0.459917	-0.450749	-0.0889401	1.21021	1.5708	0	0	0.208823	-0.495653	0.454253	0.465951	1.5708	0	0
10.16	-2.87053	1.28562	-1.23912	0.632748	1.72236	0.952807	-0.130632	0.0286815	-0.211775	0.344413	-0.271069	0	0	0.0485667	-0.11606	0.141777	0.865936	-0.185391	0	0	-0.344613	0.0360679	0.0696695	0.453167	-0.456556	-0.0975596	1.20749	1.5708	0	0	0.218971	-0.495061	0.475232	0.463827	1.5708	0	0
10.17	-2.87033	1.28485	-1.2341	0.631139	1.71772	0.952657	-0.132682	0.0269614	-0.2103	0.333413	-0.286073	0	0	0.0370327	-0.117048	0.151166	0.859888	-0.188476	0	0	-0.344856	0.0385094	0.0612327	0.459314	-0.457685	-0.0918742	1.20031	1.5708	0	0	0.209887	-0.495553	0.449715	0.477679	1.5708	0	0
10.18	-2.87275	1.28615	-1.2275	0.62951	1.71315	0.952282	-0.13078	0.0245684	-0.209218	0.327104	-0.289927	0	0	0.0279728	-0.11836	0.157764	0.853252	-0.191417	0	0	-0.341277	0.0401598	0.0588037	0.458988	-0.461398	-0.0928013	1.19554	1.5708	0	0	0.210407	-0.495688	0.4484	0.484032	1.5708	0	0
10.19	-2.87645	1.28805	-1.22013	0.627818	1.70855	0.951837	-0.127657	0.0219351	-0.2086	0.322073	-0.291635	0	0	0.0195546	-0.119742	0.162525	0.845363	-0.192722	0	0	-0.336069	0.0410675	0.057387	0.458844	-0.465405	-0.0932828	1.19133	1.5708	0	0	0.211669	-0.495429	0.448159	0.489739	1.5708	0	0
10.2	-2.88036	1.28956	-1.21289	0.626119	1.70381	0.951267	-0.124246	0.0191158	-0.208161	0.318705	-0.291124	0	0	0.0114162	-0.121393	0.164561	0.836873	-0.192971	0	0	-0.332059	0.043293	0.0596023	0.453693	-0.471234	-0.101564	1.18801	1.5708	0	0	0.219828	-0.494612	0.463966	0.490586	1.5708	0	0
10.21	-2.83863	1.31982	-1.25307	0.621059	1.69594	0.948291	-0.0807174	-0.0221489	-0.265387	0.345927	-0.289408	0	0	0.0288607	-0.0819252	0.186656	0.828701	-0.184846	0	0	-0.306282	0.0299006	0.05128	0.456889	-0.483686	-0.0949388	1.18344	1.5708	0	0	0.213982	-0.483152	0.44727	0.494898	1.5708	0	0
10.22	-2.8866	1.29121	-1.2006	0.62257	1.69407	0.950289	-0.121596	0.0138206	-0.205209	0.304282	-0.301767	0	0	-0.00798533	-0.124288	0.161165	0.803509	-0.179175	0	0	-0.327425	0.0470166	0.0550442	0.455803	-0.479797	-0.10134	1.1794	1.5708	0	0	0.217171	-0.492761	0.448517	0.507619	1.5708	0	0
10.23	-2.88844	1.29028	-1.19641	0.620789	1.68901	0.949939	-0.121859	0.010823	-0.206366	0.297241	-0.309661	0	0	-0.0191435	-0.126575	0.152306	0.778156	-0.172038	0	0	-0.32744	0.0490025	0.0546015	0.456032	-0.484976	-0.102895	1.17644	1.5708	0	0	0.218583	-0.491756	0.447366	0.513732	1.5708	0	0
10.24	-2.89076	1.29036	-1.19232	0.619024	1.68383	0.949479	-0.120323	0.00715198	-0.207538	0.291672	-0.316852	0	0	-0.0283604	-0.128101	0.141555	0.750896	-0.16492	0	0	-0.32698	0.0505112	0.0542054	0.456736	-0.490046	-0.104158	1.1736	1.5708	0	0	0.220144	-0.490676	0.445792	0.519176	1.5708	0	0
10.25	-2.84872	1.32125	-1.23522	0.61404	1.67541	0.946495	-0.0739278	-0.0365423	-0.269522	0.323216	-0.315626	0	0	-0.00783459	-0.0885781	0.150985	0.731113	-0.153461	0	0	-0.303099	0.0357748	0.0478067	0.460782	-0.503275	-0.0977178	1.17058	1.5708	0	0	0.216664	-0.478621	0.432355	0.520148	1.5708	0	0
10.26	-2.88886	1.29364	-1.19177	0.615665	1.67299	0.948471	-0.113426	-0.00347951	-0.205142	0.282785	-0.326856	0	0	-0.0395727	-0.127143	0.113719	0.706908	-0.151	0	0	-0.325692	0.0499615	0.0519902	0.460415	-0.499964	-0.103764	1.1672	1.5708	0	0	0.222449	-0.488801	0.437887	0.530161	1.5708	0	0
